<?xml version="1.0" standalone="no"?>
<!DOCTYPE svg PUBLIC "-//W3C//DTD SVG 20010904//EN"
 "http://www.w3.org/TR/2001/REC-SVG-20010904/DTD/svg10.dtd">
<svg version="1.0" xmlns="http://www.w3.org/2000/svg"
 width="3000.000000pt" height="3000.000000pt" viewBox="0 0 3000.000000 3000.000000"
 preserveAspectRatio="xMidYMid meet">

<g transform="translate(0.000000,3000.000000) scale(0.100000,-0.100000)"
fill="#000000" stroke="none">
<path d="M13490 22610 c-617 -48 -1178 -268 -1660 -650 -119 -95 -357 -328
-447 -440 -389 -483 -611 -1016 -684 -1640 -17 -153 -15 -518 5 -675 75 -598
290 -1115 656 -1575 107 -135 335 -363 470 -470 368 -293 820 -505 1265 -595
390 -79 816 -79 1204 1 449 92 893 302 1261 594 119 95 357 328 447 440 296
367 499 772 607 1212 218 883 42 1810 -482 2543 -107 149 -179 233 -326 381
-360 360 -775 609 -1266 757 -315 96 -729 141 -1050 117z"/>
<path d="M16460 22576 c0 -18 27 -29 62 -27 29 3 66 -21 152 -96 26 -24 54
-43 62 -43 8 0 14 -10 14 -21 0 -27 27 -48 63 -49 19 0 27 -5 27 -18 0 -10 9
-25 20 -35 11 -9 20 -28 20 -42 0 -18 5 -25 18 -25 10 0 37 -16 59 -35 23 -19
46 -35 51 -35 6 0 14 -10 17 -21 8 -24 51 -65 78 -74 9 -4 17 -15 17 -25 0
-11 7 -23 15 -28 23 -12 32 -82 12 -93 -10 -6 -13 -16 -9 -33 8 -27 63 -76 86
-76 9 0 42 -20 73 -44 31 -25 60 -43 65 -40 9 6 40 -10 62 -32 9 -8 16 -31 16
-50 0 -22 6 -37 15 -40 8 -4 15 -14 15 -23 0 -10 16 -30 35 -45 19 -16 35 -35
35 -42 0 -8 7 -17 15 -20 8 -4 15 -14 15 -23 0 -9 9 -22 20 -29 12 -7 20 -23
20 -40 0 -20 8 -32 30 -45 17 -10 30 -27 30 -38 0 -10 4 -19 9 -19 19 0 61
-51 61 -73 0 -14 7 -27 15 -31 9 -3 15 -18 15 -35 0 -20 7 -34 20 -41 11 -6
20 -17 20 -25 0 -8 14 -24 30 -37 17 -12 30 -28 30 -35 0 -7 8 -17 19 -22 15
-8 20 -27 26 -103 5 -71 11 -95 24 -105 12 -8 20 -31 24 -65 4 -30 13 -58 22
-64 8 -6 15 -18 15 -25 0 -8 9 -20 20 -27 11 -7 20 -22 20 -34 0 -12 7 -29 15
-38 11 -12 24 -84 42 -226 22 -171 30 -211 45 -222 12 -9 18 -26 18 -52 0 -28
5 -42 19 -49 15 -8 20 -31 30 -117 9 -76 17 -111 28 -119 26 -19 46 -195 22
-195 -7 0 -8 -16 -3 -45 4 -29 2 -50 -6 -59 -9 -11 -8 -39 4 -123 12 -92 13
-110 1 -123 -8 -9 -12 -25 -9 -35 2 -11 12 -82 22 -158 15 -114 16 -140 5
-149 -9 -7 -11 -22 -7 -43 3 -19 1 -35 -5 -39 -6 -4 -11 -18 -11 -32 0 -13 -4
-24 -10 -24 -5 0 -10 -20 -10 -44 0 -24 -5 -46 -10 -48 -6 -2 -3 -52 9 -138
14 -101 16 -139 7 -149 -6 -8 -9 -36 -8 -63 3 -30 0 -48 -7 -48 -6 0 -11 -7
-11 -15 0 -8 -4 -15 -10 -15 -5 0 -10 -11 -10 -24 0 -14 -4 -28 -10 -31 -5 -3
-10 -17 -10 -30 0 -13 -5 -27 -11 -30 -7 -5 -8 -29 -4 -71 7 -59 6 -64 -12
-64 -10 0 -26 -9 -36 -20 -9 -11 -24 -20 -33 -20 -10 0 -14 -6 -10 -17 14 -51
17 -125 6 -138 -7 -8 -10 -27 -7 -43 4 -21 -2 -36 -29 -67 -19 -22 -34 -50
-34 -62 0 -12 -4 -25 -10 -28 -5 -3 -10 -24 -10 -45 0 -21 -4 -40 -8 -42 -16
-7 -57 -73 -54 -89 2 -10 -2 -20 -8 -24 -5 -3 -10 -24 -10 -46 0 -21 -4 -39
-10 -39 -5 0 -10 -9 -10 -20 0 -29 -29 -70 -49 -70 -24 0 -45 -43 -37 -74 5
-19 2 -28 -9 -32 -8 -4 -15 -12 -15 -19 0 -8 -10 -15 -22 -17 -17 -2 -22 -9
-21 -26 2 -13 -4 -25 -12 -28 -10 -4 -13 -14 -9 -30 3 -13 2 -24 -4 -24 -5 0
-26 -24 -46 -52 -20 -29 -51 -71 -69 -94 -86 -108 -127 -170 -127 -191 0 -15
-6 -23 -17 -23 -10 0 -31 -16 -46 -35 -15 -19 -34 -35 -41 -35 -8 0 -16 -7
-20 -15 -3 -8 -15 -15 -27 -15 -20 0 -21 -4 -15 -46 3 -26 6 -62 6 -80 0 -39
32 -74 66 -74 13 0 26 -4 29 -10 3 -5 17 -10 30 -10 13 0 27 -5 31 -11 3 -6
17 -8 30 -5 27 7 74 -18 74 -39 0 -19 70 -75 93 -75 10 0 37 -15 60 -34 23
-18 48 -31 55 -29 8 3 26 -7 41 -21 16 -15 33 -26 39 -24 18 5 92 -46 98 -67
3 -11 25 -35 50 -54 24 -18 44 -38 44 -45 0 -16 65 -66 87 -66 10 0 36 -14 57
-30 22 -17 47 -30 57 -30 9 0 22 -6 29 -14 6 -8 18 -12 25 -10 19 8 64 -27 65
-48 0 -12 8 -18 23 -18 13 0 32 -9 42 -20 10 -11 26 -22 36 -25 11 -4 19 -14
19 -23 0 -22 63 -72 90 -72 13 0 24 -9 30 -25 5 -14 14 -25 20 -25 5 0 10 -8
10 -19 0 -10 15 -29 34 -42 134 -95 236 -177 242 -196 3 -12 12 -24 20 -27 8
-3 14 -13 14 -23 0 -11 25 -35 60 -58 33 -22 60 -47 60 -57 0 -9 23 -33 50
-53 39 -29 50 -43 50 -65 0 -16 7 -30 15 -34 8 -3 15 -16 15 -29 0 -13 9 -32
20 -42 11 -10 20 -24 20 -32 0 -9 13 -13 40 -13 34 0 41 -4 46 -24 3 -14 12
-27 20 -30 8 -3 14 -18 14 -34 0 -20 7 -32 24 -41 22 -12 76 -83 76 -101 0 -4
7 -10 15 -14 8 -3 15 -18 15 -34 0 -23 12 -37 65 -77 36 -27 65 -57 65 -66 0
-9 7 -19 15 -23 8 -3 15 -12 15 -20 0 -9 9 -20 20 -26 13 -7 20 -21 20 -40 0
-21 8 -33 30 -47 22 -12 30 -25 30 -45 0 -15 8 -33 19 -40 12 -9 20 -32 25
-70 5 -35 13 -58 22 -62 8 -3 14 -16 14 -29 0 -13 9 -32 20 -42 11 -10 20 -23
20 -28 0 -6 14 -22 30 -36 25 -21 32 -36 37 -79 4 -37 11 -56 24 -63 12 -6 19
-21 19 -38 0 -16 7 -31 15 -35 8 -3 15 -12 15 -19 0 -8 9 -22 19 -32 17 -15
31 -16 99 -10 l79 7 39 49 c21 27 44 49 51 49 7 0 16 6 20 14 4 8 22 16 38 18
27 3 30 7 30 38 0 52 22 76 76 84 l47 7 -2 52 c-1 48 1 52 24 55 14 2 34 13
46 23 17 16 20 28 16 69 -4 46 -3 50 22 60 14 5 26 14 26 19 0 5 10 11 22 13
15 2 23 10 23 24 0 23 53 94 70 94 15 0 45 37 45 55 0 24 30 65 48 65 20 0 41
29 42 57 0 12 5 25 10 28 6 3 10 17 10 30 0 17 7 26 23 30 24 6 67 64 67 91 0
9 12 31 28 49 33 39 48 58 87 110 16 22 33 41 37 43 4 2 8 13 8 24 0 11 10 33
21 50 15 20 20 38 16 57 -4 20 1 34 19 54 13 14 24 31 24 36 0 5 10 11 23 13
16 2 23 11 25 31 2 15 8 27 13 27 6 0 9 8 7 18 -3 23 28 69 53 75 16 4 19 11
14 26 -4 15 -1 23 10 27 9 4 13 13 10 24 -3 9 1 23 9 29 10 8 13 23 9 46 -5
30 -2 36 20 44 42 16 69 65 65 119 -3 41 0 47 17 50 24 4 75 72 75 101 0 12 5
21 11 21 6 0 9 9 6 20 -3 10 2 25 9 31 8 7 12 19 9 26 -4 13 36 78 58 94 5 4
7 20 6 37 -3 20 3 39 16 54 49 58 76 99 70 108 -4 6 -1 18 6 26 7 9 12 35 10
60 -3 49 18 80 59 86 24 3 25 6 25 65 0 33 3 65 8 69 4 4 7 24 7 43 0 27 9 47
33 75 31 35 33 42 27 82 -5 30 -3 47 5 54 8 6 10 28 7 60 -3 33 -1 50 7 50 6
0 11 6 11 14 0 8 11 17 25 20 18 5 25 13 25 30 0 14 5 26 11 28 7 2 7 22 1 63
-8 49 -7 62 4 68 9 5 12 16 9 26 -3 10 1 24 10 31 8 7 13 21 10 30 -3 9 1 23
9 29 8 7 12 20 9 28 -4 9 1 21 9 27 13 9 14 21 7 66 -6 42 -5 58 5 68 9 10 11
25 6 55 -6 31 -4 46 8 64 10 12 20 23 25 23 4 0 7 9 7 21 0 11 9 34 21 50 17
24 19 37 13 89 -5 45 -3 60 6 60 9 0 11 13 6 50 -7 50 -3 60 52 116 6 7 12 24
12 37 0 14 4 27 9 29 6 2 1 65 -10 152 -14 103 -17 152 -9 160 5 5 10 20 10
32 0 11 11 33 24 47 16 17 22 33 19 47 -3 12 0 31 6 43 9 17 8 46 -3 127 -11
79 -12 108 -3 118 6 8 10 29 8 47 -1 18 2 36 8 40 6 3 11 17 11 31 0 13 5 24
10 24 6 0 10 11 10 24 0 14 4 28 10 31 6 3 7 31 3 66 -4 42 -2 63 6 68 9 6 8
33 -4 117 -65 467 -77 578 -65 597 7 12 9 34 5 58 -5 26 -3 45 6 55 12 15 12
15 -41 404 -10 74 -29 212 -41 305 -17 132 -26 173 -39 182 -13 9 -19 34 -25
100 -5 66 -11 92 -24 103 -13 11 -22 47 -34 130 -9 63 -30 219 -48 345 -20
149 -36 233 -45 238 -7 4 -16 32 -19 62 -5 39 -13 59 -26 66 -12 6 -19 21 -19
38 0 16 -7 31 -15 35 -8 3 -15 13 -15 23 0 10 -9 24 -20 31 -15 9 -20 23 -20
57 0 30 -6 50 -19 62 -13 13 -23 49 -34 122 -11 71 -21 108 -32 113 -9 5 -15
23 -15 42 0 26 -6 36 -27 47 -35 17 -43 28 -43 56 0 12 -7 26 -16 31 -10 6
-19 34 -26 88 -7 56 -15 83 -29 94 -10 9 -20 32 -22 55 -3 28 -9 41 -21 43
-12 3 -16 10 -13 23 5 19 -41 19 -2559 19 -2185 0 -2564 -2 -2564 -14z"/>
<path d="M4464 12485 c-3 -19 -3 -43 1 -52 25 -57 -13 -124 -80 -141 l-30 -8
-7 -140 c-11 -199 -13 -217 -28 -240 -10 -16 -11 -30 -4 -55 9 -29 6 -42 -19
-91 -17 -32 -36 -58 -43 -58 -8 0 -16 -10 -19 -22 -5 -26 -14 -335 -13 -478 1
-166 -1 -182 -28 -222 -21 -30 -25 -44 -20 -75 4 -21 8 -270 10 -553 3 -438 6
-543 24 -700 11 -102 26 -277 32 -390 l12 -205 36 -72 c35 -70 36 -72 23 -126
-12 -49 -12 -61 7 -118 28 -90 40 -144 47 -218 4 -43 17 -84 38 -125 27 -53
31 -71 30 -131 -1 -41 4 -83 13 -104 8 -19 21 -64 28 -100 8 -36 30 -100 50
-141 28 -58 36 -87 36 -130 0 -75 14 -120 55 -177 66 -91 78 -121 73 -182 -7
-76 3 -105 67 -201 30 -46 56 -90 56 -99 1 -9 2 -45 3 -81 1 -59 5 -73 46
-139 25 -40 55 -89 67 -109 13 -21 23 -48 23 -62 0 -28 26 -80 76 -154 21 -30
34 -64 38 -99 5 -39 15 -61 36 -84 49 -52 80 -104 80 -134 0 -43 16 -75 60
-122 45 -49 70 -102 70 -146 0 -24 13 -43 60 -89 64 -63 80 -93 80 -148 0 -48
44 -112 141 -205 l79 -75 0 -58 c0 -56 1 -58 63 -123 34 -37 75 -78 92 -92 89
-78 95 -87 95 -137 0 -42 6 -56 38 -95 75 -93 234 -255 268 -274 46 -25 64
-60 57 -113 -5 -41 -5 -42 97 -149 100 -106 204 -208 644 -635 121 -117 292
-285 381 -373 174 -173 210 -199 256 -183 16 5 33 8 38 6 16 -5 130 -108 225
-203 114 -113 254 -239 283 -254 12 -6 41 -11 64 -11 40 0 48 -5 104 -64 33
-35 91 -88 129 -116 68 -51 74 -53 165 -59 7 -1 39 -28 71 -61 60 -63 87 -73
132 -49 34 18 82 -13 102 -66 21 -54 74 -82 127 -67 45 12 76 0 90 -35 20 -51
24 -55 71 -73 26 -10 70 -35 99 -55 30 -23 73 -43 106 -51 30 -7 84 -30 121
-52 37 -22 87 -45 112 -52 45 -12 122 -49 172 -82 45 -31 138 -58 198 -58 59
0 57 1 158 -72 42 -31 115 -48 201 -48 52 0 63 -4 120 -46 49 -35 76 -48 120
-54 31 -5 82 -20 113 -35 96 -44 297 -95 376 -95 23 0 70 -12 104 -26 109 -46
230 -76 338 -84 58 -4 137 -17 175 -28 67 -20 163 -34 340 -52 44 -5 100 -13
125 -20 24 -6 101 -10 170 -9 110 1 132 -1 185 -22 57 -22 71 -23 279 -21 163
1 237 -2 292 -14 72 -14 187 -18 253 -7 64 11 64 13 56 583 -4 278 -8 507 -10
510 -2 3 -6 253 -9 555 -6 614 -15 1206 -22 1455 -3 91 -6 278 -7 417 -1 138
-4 253 -7 256 -3 3 -108 1 -235 -3 -221 -7 -232 -6 -295 15 -47 16 -99 24
-190 28 -77 3 -170 15 -242 31 -65 14 -138 26 -163 26 -25 0 -80 13 -123 29
-99 36 -256 72 -353 81 -68 6 -85 12 -160 58 -102 61 -153 77 -208 62 -53 -14
-83 -1 -140 60 -44 47 -50 50 -98 50 -52 0 -89 18 -161 81 -26 23 -42 29 -78
29 -56 0 -75 10 -142 73 -50 46 -56 49 -93 43 -47 -7 -98 15 -144 64 -59 63
-185 151 -223 157 -36 5 -112 48 -112 63 0 4 -48 51 -106 105 -87 79 -110 96
-128 90 -71 -23 -65 -26 -218 128 -78 80 -161 160 -183 177 -79 62 -425 411
-429 433 -3 12 -8 36 -11 52 -12 56 -107 164 -316 359 -40 37 -41 40 -36 86 4
31 1 54 -8 66 -13 19 -125 130 -198 198 l-39 36 7 64 7 64 -38 28 c-21 16 -53
44 -72 61 -33 32 -34 34 -27 92 7 65 5 72 -71 198 -24 39 -53 102 -65 140 -13
40 -37 87 -59 113 -54 66 -54 68 -61 155 -3 45 -15 102 -26 130 -12 28 -26 77
-32 109 -7 37 -26 84 -51 126 -44 73 -55 117 -69 283 -10 115 -7 108 -87 217
-23 31 -25 41 -19 85 8 61 8 53 2 145 -3 41 -10 88 -16 103 -6 16 -11 65 -11
110 0 45 -5 134 -11 197 -6 63 -11 318 -11 565 -1 403 1 454 16 483 13 25 15
41 8 65 -5 18 -5 43 -1 55 5 14 4 40 -3 66 -14 52 0 96 45 138 l28 27 4 171
c4 166 4 171 29 201 14 17 26 43 26 58 0 20 7 31 26 39 23 11 25 17 24 70 -2
122 5 203 18 211 11 7 9 19 -12 59 -14 28 -26 61 -26 73 0 12 -8 28 -17 35
-32 23 10 41 109 48 33 3 35 4 43 39 l7 27 -1865 0 -1866 0 -7 -35z"/>
</g>
</svg>
